<?xml version="1.0"?>
<svg xmlns="http://www.w3.org/2000/svg" xmlns:xlink="http://www.w3.org/1999/xlink" width="677" height="306.5" viewBox="0 0 677 306.5">
  <defs>
    <linearGradient xlink:href="#i" id="s" gradientUnits="userSpaceOnUse" gradientTransform="matrix(2.74 0 0 2.74 -156.2 -1695)" x1="222" y1="120.2" x2="221.3" y2="135.8"/>
    <linearGradient id="a" gradientUnits="userSpaceOnUse" x1="-83.69" y1="124.8" x2="-40.42" y2="124.8" gradientTransform="rotate(-90.23)">
      <stop offset="0" stop-color="#3c6781"/>
      <stop offset=".404" stop-color="#7092a7" stop-opacity=".573"/>
      <stop offset=".984" stop-color="#b7ccdb" stop-opacity="0"/>
    </linearGradient>
    <linearGradient xlink:href="#b" id="r" gradientUnits="userSpaceOnUse" gradientTransform="rotate(-93.238 -860.927 -678.148) scale(2.7404)" x1="-136.6" y1="14.57" x2="-73.34" y2="14.57"/>
    <linearGradient id="c" gradientUnits="userSpaceOnUse" x1="-455.8" y1="659.5" x2="-392.5" y2="659.5" gradientTransform="scale(1 -1) rotate(86.761 305.64 622.525)">
      <stop offset="0" stop-color="#3c6781"/>
      <stop offset=".404" stop-color="#7092a7" stop-opacity=".573"/>
      <stop offset=".984" stop-color="#b7ccdb" stop-opacity="0"/>
    </linearGradient>
    <linearGradient xlink:href="#c" id="t" gradientUnits="userSpaceOnUse" gradientTransform="matrix(.1548 -2.736 -2.736 -.1548 2525 -2487)" x1="-455.8" y1="659.5" x2="-392.5" y2="659.5"/>
    <linearGradient id="d" gradientUnits="userSpaceOnUse" x1="-105" y1="65.33" x2="-80.48" y2="65.33" gradientTransform="rotate(-90) skewX(.06)">
      <stop offset="0" stop-color="#3c6781"/>
      <stop offset=".404" stop-color="#7092a7" stop-opacity=".573"/>
      <stop offset=".984" stop-color="#b7ccdb" stop-opacity="0"/>
    </linearGradient>
    <linearGradient id="e" gradientUnits="userSpaceOnUse" x1="-81.42" y1="195" x2="-57.88" y2="195" gradientTransform="rotate(-82.859)">
      <stop offset="0" stop-color="#3c6781"/>
      <stop offset=".404" stop-color="#7092a7" stop-opacity=".573"/>
      <stop offset=".984" stop-color="#b7ccdb" stop-opacity="0"/>
    </linearGradient>
    <linearGradient id="f" gradientUnits="userSpaceOnUse" x1="-95.18" y1="131.1" x2="-73.44" y2="131.1" gradientTransform="rotate(-86.572)">
      <stop offset="0" stop-color="#3c6781"/>
      <stop offset=".404" stop-color="#7092a7" stop-opacity=".573"/>
      <stop offset=".984" stop-color="#b7ccdb" stop-opacity="0"/>
    </linearGradient>
    <linearGradient id="g" gradientUnits="userSpaceOnUse" x1="-124.8" y1="126" x2="-90.51" y2="126" gradientTransform="rotate(-88.791)">
      <stop offset="0" stop-color="#3c6781"/>
      <stop offset=".404" stop-color="#7092a7" stop-opacity=".573"/>
      <stop offset=".984" stop-color="#b7ccdb" stop-opacity="0"/>
    </linearGradient>
    <linearGradient xlink:href="#g" id="u" gradientUnits="userSpaceOnUse" gradientTransform="matrix(.0578 -2.739 2.739 .0578 -72.02 -1617)" x1="-124.8" y1="126" x2="-90.51" y2="126"/>
    <linearGradient id="h" gradientUnits="userSpaceOnUse" x1="-135.9" y1="29.66" x2="-120.3" y2="29.66" gradientTransform="rotate(-87.708)">
      <stop offset="0" stop-color="#231f20"/>
      <stop offset="1" stop-color="#231f20" stop-opacity="0"/>
    </linearGradient>
    <linearGradient xlink:href="#h" id="q" gradientUnits="userSpaceOnUse" gradientTransform="rotate(-87.708 -807.7 -891.61) scale(2.7402)" x1="-135.9" y1="29.66" x2="-120.3" y2="29.66"/>
    <linearGradient id="i" gradientUnits="userSpaceOnUse" x1="222" y1="120.2" x2="221.3" y2="135.8">
      <stop offset="0" stop-color="#231f20"/>
      <stop offset="1" stop-color="#231f20" stop-opacity="0"/>
    </linearGradient>
    <linearGradient id="b" gradientUnits="userSpaceOnUse" x1="-136.6" y1="14.57" x2="-73.34" y2="14.57" gradientTransform="rotate(-93.239)">
      <stop offset="0" stop-color="#3c6781"/>
      <stop offset=".404" stop-color="#7092a7" stop-opacity=".573"/>
      <stop offset=".984" stop-color="#b7ccdb" stop-opacity="0"/>
    </linearGradient>
    <linearGradient id="j" gradientUnits="userSpaceOnUse" x1="-105" y1="65.33" x2="-80.48" y2="65.33" gradientTransform="rotate(-90) skewX(.06)">
      <stop offset="0" stop-color="#3c6781"/>
      <stop offset=".404" stop-color="#7092a7" stop-opacity=".573"/>
      <stop offset=".984" stop-color="#b7ccdb" stop-opacity="0"/>
    </linearGradient>
    <linearGradient id="k" gradientUnits="userSpaceOnUse" x1="-95.18" y1="131.1" x2="-73.44" y2="131.1" gradientTransform="rotate(-86.572)">
      <stop offset="0" stop-color="#3c6781"/>
      <stop offset=".404" stop-color="#7092a7" stop-opacity=".573"/>
      <stop offset=".984" stop-color="#b7ccdb" stop-opacity="0"/>
    </linearGradient>
    <linearGradient id="l" gradientUnits="userSpaceOnUse" x1="-81.42" y1="195" x2="-57.88" y2="195" gradientTransform="rotate(-82.859)">
      <stop offset="0" stop-color="#3c6781"/>
      <stop offset=".404" stop-color="#7092a7" stop-opacity=".573"/>
      <stop offset=".984" stop-color="#b7ccdb" stop-opacity="0"/>
    </linearGradient>
    <linearGradient xlink:href="#j" id="v" gradientUnits="userSpaceOnUse" gradientTransform="matrix(0 -2.74 2.74 -.0027 -6.641 -2224)" x1="-105" y1="65.33" x2="-80.48" y2="65.33"/>
    <linearGradient xlink:href="#l" id="w" gradientUnits="userSpaceOnUse" gradientTransform="matrix(.3407 -2.719 2.719 .3407 -116.9 -2063)" x1="-81.42" y1="195" x2="-57.88" y2="195"/>
    <linearGradient xlink:href="#k" id="x" gradientUnits="userSpaceOnUse" gradientTransform="matrix(.164 -2.738 2.738 .164 -242.7 -632.1)" x1="-95.18" y1="131.1" x2="-73.44" y2="131.1"/>
    <linearGradient xlink:href="#a" id="p" gradientUnits="userSpaceOnUse" gradientTransform="matrix(-.011 -2.74 2.74 -.011 -49.09 -2080)" x1="-83.69" y1="124.8" x2="-40.42" y2="124.8"/>
    <radialGradient xlink:href="#m" id="y" gradientUnits="userSpaceOnUse" gradientTransform="matrix(-2.74 0 0 2.784 388.5 522.1)" cx="16.05" cy="-16.8" r="54.74"/>
    <radialGradient id="m" cx="16.05" cy="-16.8" r="54.74" gradientTransform="matrix(-1 0 0 -1.016 32.1 -33.86)" gradientUnits="userSpaceOnUse">
      <stop offset=".024" stop-color="#ffeec2" stop-opacity=".651"/>
      <stop offset=".067" stop-color="#f3dfb4" stop-opacity=".674"/>
      <stop offset=".208" stop-color="#d3b58e" stop-opacity=".749"/>
      <stop offset=".337" stop-color="#bc9772" stop-opacity=".8"/>
      <stop offset=".447" stop-color="#ae8561" stop-opacity=".835"/>
      <stop offset=".522" stop-color="#a97e5b" stop-opacity=".847"/>
      <stop offset=".584" stop-color="#7a5b42" stop-opacity=".847"/>
    </radialGradient>
    <radialGradient xlink:href="#n" id="z" gradientUnits="userSpaceOnUse" gradientTransform="matrix(2.137 1.715 -1.689 2.17 -4205 21030)" cx="-3283" cy="-6842" r="35.44"/>
    <radialGradient id="n" cx="-3283" cy="-6842" r="35.44" gradientTransform="matrix(.7798 -.626 -.6165 -.7918 -1645 -7481)" gradientUnits="userSpaceOnUse">
      <stop offset=".024" stop-color="#ffeec2" stop-opacity=".651"/>
      <stop offset=".067" stop-color="#f3dfb4" stop-opacity=".674"/>
      <stop offset=".208" stop-color="#d3b58e" stop-opacity=".749"/>
      <stop offset=".337" stop-color="#bc9772" stop-opacity=".8"/>
      <stop offset=".447" stop-color="#ae8561" stop-opacity=".835"/>
      <stop offset=".522" stop-color="#a97e5b" stop-opacity=".847"/>
      <stop offset=".584" stop-color="#7a5b42" stop-opacity=".847"/>
    </radialGradient>
    <radialGradient xlink:href="#o" id="A" gradientUnits="userSpaceOnUse" gradientTransform="matrix(2.74 0 0 2.781 206 -1590)" cx="22.45" cy="-15.8" r="49.76"/>
    <radialGradient id="o" cx="22.45" cy="-15.8" r="49.76" gradientTransform="matrix(1 0 0 -1.015 0 -31.84)" gradientUnits="userSpaceOnUse">
      <stop offset=".024" stop-color="#ffeec2" stop-opacity=".651"/>
      <stop offset=".067" stop-color="#f3dfb4" stop-opacity=".674"/>
      <stop offset=".208" stop-color="#d3b58e" stop-opacity=".749"/>
      <stop offset=".337" stop-color="#bc9772" stop-opacity=".8"/>
      <stop offset=".447" stop-color="#ae8561" stop-opacity=".835"/>
      <stop offset=".522" stop-color="#a97e5b" stop-opacity=".847"/>
      <stop offset=".584" stop-color="#7a5b42" stop-opacity=".847"/>
    </radialGradient>
  </defs>
  <g fill-rule="evenodd">
    <path d="M175.58 14c2.6 1 16.3 5 41.5 13 14.8 4 25.5 6 32.3 6 11.4 0 27-2 47-8 20-5 36.2-8 48-9 13.1 0 29.6 3 49.5 8 17 5 27.7 7 31.6 7 0 0 5.2-3 16.1-7 13.2-6 26.7-10 40.1-14 43-12 77.2-12 102.8-1 24 11 28.9 39 14.1 84-7.4 23-17.2 44-29.2 65l-459.17 2c-1.5 4-5.69-1-12.59-12-7.43-13-13.68-27-18.81-42-14.6-45-11.1-74 10.55-88 20.05-12 48.82-14 86.22-4z" fill="#b7ccdb"/>
    <path d="M130.4-2009c2.6 1 16.3 5 41.5 13 14.8 4 25.5 7 32.3 7 11.4 0 25.1-3 40.9-8 16.2-6 30.5-8 42.3-8 12.9-1 31.5 2 55.7 7 20.4 5 33 7 37.2 6-.3 0 5.2-2 16.1-7 13.2-5 26.7-10 40.1-14 43-12 77-12 102.8-1 24 11 28.9 39 13.8 84-7.1 23-16.9 45-28.9 65l-459.14 3c-1.5 3-5.69-1-12.59-13-7.43-12-13.68-26-18.81-42-14.6-45-11.1-74 10.55-87 20.05-13 48.79-15 86.19-5z" fill="url(#p)" transform="translate(45.58 2023)"/>
    <path d="M71.85 74c3.83 13 9.51 24 16.98 34 10.62 13 23.91 20 39.99 22 21.66 3 56.76 3 105.26 1 26.4-1 61.8-3 106.6-6 8.5-1 46.3 1 113.4 4 51.2 3 82.2 1 92.4-4 9.6-5 21.1-17 34.5-36 9.5-13 17.2-26 23.2-38 0 3-.2 7-.8 10l-8.5 38c-5.7 19-13.1 39-22.7 59l-464.44 1c-1 2-3.29 0-6.99-5-3.6-5-7.61-12-11.92-21-9.12-21-14.79-41-16.98-59z" fill="#8aa6ad"/>
    <path d="M140.51 14.5c-14.19-3-26.279-3-36.169-2-9.761 2-12.661 3-8.751 3l-16.71 8c2.83-2 6.79-5 11.92-9 4.46-4 8.45-6 11.95-8 19.981-7 46.85-8 80.73-2 8.8 2 21.4 5 37.73 8 13.6 3 23.8 5 30.6 5 11.3 0 27-2 46.8-5 20.2-4 36.1-5 47.6-6 13.4 0 29.9 2 49.6 6 18.4 3 29 4 31.8 4 4.1 0 24.4-4 60.3-11 38.3-6 67.7-7 87.4-1 7.4 2 13.4 4 17.8 7 3.1 3 7.2 7 12.1 13-5.2-2-12.1-4-20.6-6-10.9-1-19.4-3-25.5-3-12.6-2-31.5-1-56.9 3-27.5 6-45.8 10-55.4 11-11 2-26.6 1-46.8-4-27.2-6-42.8-9-47.5-9-11.2-1-27.4 0-48.2 4-28.2 5-43.8 8-47 8-11 1-29.6 0-55.63-4-29.6-5-49.98-9-61.17-10z" fill="#cce4f4"/>
    <path d="M291.21 20.5c2.1 0 4.3 1 6.8 1-20 4-37.8 6-53.5 7-13.2 0-29-2-47.53-5l-8.5-2 14.2-2c2.7 0 4.6-1 5.7-3 .6-2 .8-3 .7-5 14.43 2 22.83 4 24.93 4 6.5 1 12.4 2 17.8 2 7 0 14.5-1 22.3-2 5.5 0 12.4-1 21.2-3-2 2-3.9 3-6.1 4-2.7 1-1.9 2 2 4z" fill="#c4dbe8"/>
    <path d="M79.57 25.5l2.6-4c2.28-3 4.87-6 7.81-8 9.27-8 20.061-12 32.351-11 9.289 1 31.169 6 65.449 15 32.03 8 51.33 12 58.13 11 4.1 0 17.7-3 40.6-8 20.8-4 36.6-6 47.6-6 6.9-1 25 2 54.6 7 28.5 6 47.1 8 56.4 7 10.2 0 29.9-4 59.3-11 27.8-6 44.8-9 51.4-9 13.2 0 25.3 3 36.8 10 5.5 4 9.9 7 12.9 11-5.2-3-11.3-5-18.1-8-14.3-5-26.1-8-36-8-7.6 1-24.4 4-50.6 10-27.2 7-46.6 10-58.4 11-9.1 0-27.4-2-55.1-7-28.8-6-47.1-9-54.8-9-8.3 0-21 2-38.9 7-17.8 4-34.9 6-51 6-17.6 0-41.93-4-72.93-11-29.47-8-47.149-11-53.149-11-8.99 1-17.881 4-26.551 9l-10.41 7z" fill="#d7edf4"/>
    <path d="M397.21 24.5l-2.7-1h5.7c4.1-1 7.4-2 9.6-3 1.9-1 2.5-2 1.4-3-.5-1-1.6-2-3-3 9.9 2 16.3 2 19.6 2 1.4 0 8.8-2 22.2-5 15.4-4 29.1-6 40.9-9-1.1 4-2.7 7-5.2 9-1.6 1 0 2 4.7 2 2.4 0 5.7 1 9.8 1-4.6 1-10.7 3-18.1 6-7.9 3-13.7 4-17 5l-7.6 2c-3.1 1-6.6 2-10.5 2-7.4 1-15.9 1-24.9 0-6 0-14.5-2-24.9-5zM575.31 4.5c14.5 4 23 9 26.1 15 1.3 3 1.3 5-.6 7-.3-1-1.1 0-1.6 0h-2.5c-2.5-1-7.1-3-14.8-5-8.2-2-13.5-4-15.6-5 1 0 3.8 0 8.2 1 4.1 0 6.8 0 8.2-1 1.9 0 1.4-2-1.6-6-3.3-3-5.2-5-5.8-6z" fill="#c4dbe8"/>
    <path d="M364.61 17.5l-12.1-1c-2.7-1-5.5-1-8.5-1h-14c-4.9 0-8.2-1-9.3-3-.8-2 .5-3 4.6-4 6.4-1 13.5-1 20.9-2 5.7 0 11.5 1 17.5 1 14.6 4 22.3 6 23.1 8 .8 1-1.7 2-7.4 2h-14.8zM578.61 11.5c.5 1-.6 2-3.3 3-3.3 1-6.9 2-11 1h-5.2c-1.9-1-6-2-11.8-2-4.4 0-7.7-1-9.6-3-2.4-2-2.7-4-.8-5 2.2-2 7.1-3 15.4-3 7.1 1 14.2 3 21.6 6 .6 0 2.2 1 4.7 3zM146.2 5.5c-1.9 2-5.09 4-9.79 5l-13.379 2c-10.19 0-20.281 2-30.311 4H90.8c-.27-1 1.29-2 4.66-5 3.59-2 5.49-3 5.79-4l1.5-1c6.291-2 12.081-4 17.481-4 3.1-1 9.889-1 20.279 0 5.29 0 7.19 1 5.69 3z" fill="#d7eef9"/>
    <path d="M124.49 221c-8.29 4-15.98 4-23.07 4l-8.04-4c-.55 0-.9-4-1.1-4-.35-9 .22-9 1.78-13 2.74 0 83.82-4 243.32-8 159.8 0 240 0 241.5 4 1.8 4 1.8 12 .5 29-9-4-17.8-8-26.3-8h-191c-11.2 4-54.9 0-130.5 0H124.49z" fill="#465151"/>
    <path d="M83.58 306l-32.2 1-10.4-32 57.1-2z" fill="#5b4139"/>
    <path d="M198-1309l-32.2 1-10.4-32 57.1-2z" fill="url(#q)" transform="translate(-114.42 1615)"/>
    <path d="M94.08 273l8.1-4-3 17-15.6 20z" fill="#3a2924"/>
    <path d="M91.88 280h-50.9v-5l53.1-2z" fill="#3a2924"/>
    <path d="M108.78 162c-.3 1-.6 1-1 1h-.2c-1.1-1-3.1-3-6.1-8-5.7-11-10.1-18-13.2-23l2.4 2c2.2 2 4.5 4 7 5l14.9 4c15.9 2 38.9 2 69.2 2 162.9-3 248.9-4 257.7-4 6.8-1 29.6-1 67.9-1 36.2 0 56.5-1 60.9-4 .3 0 6.6-3 18.9-8-3.8 10-8.2 20-13.4 32l-465 2z" fill="#7a919b"/>
    <g>
      <path d="M35.78 91c3.9-6 11.9-8 23.7-7 12.6 1 22.4 6 29.2 14 6.1 8 10.1 18 11.8 31 .8 6 1 12 .7 17l7.2 112c-6.8 9-11.3 14-13.4 15-2.1 1-20.5 2-55.1 2 1.4-10 2.4-21 3.2-33 1.4-23 .3-38-3.2-45-1.8-3-4.3-6-7.4-7-4-2-7.1-3-9.1-4-8.5-4-15.1-11-19.8-22-4.7-11-4.8-23-.1-34 1.4-3 3.2-6 5.5-9 1.1-2 2-3 2.8-4l24-26z" fill="#b7ccdb"/>
      <path d="M-196.8-1437c3.9-6 11.9-8 23.7-7 12.6 1 22.4 6 29.2 14 6.1 8 10.1 18 11.8 31 .8 6 1 12 .7 17l7.2 112c-6.8 9-11.3 14-13.4 15-2.1 1-20.5 2-55.1 2 1.4-10 2.4-21 3.2-33 1.4-23 .3-38-3.2-45-1.8-3-4.3-6-7.4-7-4-2-7.1-3-9.1-4-8.5-4-15.1-11-19.8-22-4.7-11-4.8-23-.1-34 1.4-3 3.2-6 5.5-9 1.1-2 2-3 2.8-4l24-26z" fill="url(#r)" transform="translate(232.58 1528)"/>
      <path d="M71.88 102c-2.3-9-3.6-14-3.7-17 8.7 3 15.6 7 20.5 13 6.1 8 10.9 18 14.4 30 1.7 7 2.8 12 3.3 17l6.3 108c-9.7 13-15.6 19-17.7 20h-1.9c.5-12 0-30-1.7-55-2-28-4.6-46-7.9-55-1.7-5-2.2-8-1.4-10 .5-1-.5-3-3-5-3.1-4-5.5-9-7.2-16-1.9-6-1.8-11 .2-14 1.7-2 1.6-8-.2-16z" fill="#8fb2bc"/>
      <path d="M76.18 89c4 4 6.5 8 7.7 11 .6 2 .9 3 .7 4-1.4 1-2.9 2-4.7 4-3.4 3-6 6-7.8 10-2 5-3 9-3.1 13-2.8-3-6.5-5-10.8-7-8.7-5-16.8-8-24.4-8-3.7 0-8.2 1-13.5 2-5.7 2-9.7 3-11.9 3 1.3-2 2.4-3 3.4-4l24-26c2.2-3 6.2-5 11.9-7 5.9-1 12-1 18.5 1 .4 0 2.1 1 5.2 2 2.4 0 4 1 4.8 2z" fill="#cce4f4"/>
      <path d="M66.88 122c9.7 8 17.2 22 22.5 41 .7 2 3.3 15 7.7 39 2.1 11 2.4 32 1.1 62l14.1-9-19.2 18c.5-35-.2-59-2.2-70-4.6-26-7-39-7.3-41-5.1-19-12.7-31-22.8-37-10.5-5-21.6-8-33.3-6-7.8 1-14.7 3-20.9 6-3 2-3.6 2-1.7 0 .9-1 2.1-2 3.5-4l5.9-2c4.9-2 9.9-3 14.8-4 15.7-3 28.3-1 37.8 7z" fill="#889fa5"/>
      <path d="M17.48 125c8.5-3 17.8-3 27.8-1 5 1 9.1 2 12.3 3-14.8-1-26.4 0-34.7 2-5.2 1-10.2 5-15 11l-5.7 10c-.9-3-.9-7-.1-10 1.6-7 6.7-12 15.4-15z" fill="#c7dfe8"/>
      <path d="M18.58 117l-9.5 3 15.9-19c2.8-3 7.5-8 13.8-13-3 4-5.7 7-8 11-4.9 8-5.9 11-2.9 11 7.3-1 12-1 14.1-1 6.5 0 11.2 0 14.2 2 4.4 2 8.6 6 12.6 12-1-1-2.7-3-5-4-5.5-4-12.4-5-20.7-5-8.4 0-16.6 1-24.5 3z" fill="#d7edf4"/>
      <path d="M85.58 196c-.6-7-2.5-17-5.7-30l-4.6-18 6.8 17c4.5 13 6.6 26 6.3 38-.3 14 .4 37 2.2 70l-14.6-3 5.6-1c3.6-1 5.5-4 5.5-8 0-33-.5-55-1.5-65z" fill="#b1ccd3"/>
      <path d="M58.28 173c3.7-2 6.8-3 9-4l-1.1 8c-1.3 6-3.7 12-7.2 17-1.3 2-2.2 7-2.8 15-.9 13-1.3 20-1.3 20-.9 8-4.4 19-10.4 36 .9-10 1.5-20 1.9-31 .6-21-.5-33-3.3-36-5.9-7-10.9-12-15.2-14-7.1-3-11-5-11.8-6-4.3-3-7.2-7-8.8-12l-.9-7 9 10c7.3 6 14.4 9 21.4 8 6.9 0 14.1-2 21.5-4z" fill="#9ab9c4"/>
    </g>
    <path d="M104.35 206l466.83-6 13 20-484.63 3z" fill="#5b3231"/>
    <g>
      <path d="M636.18 270.5l-10.4 32-32.3-1-14.5-33z" fill="#5b4139"/>
      <path d="M481.1-1375l-10.4 32-32.3-1-14.5-33z" fill="url(#s)" transform="translate(155.08 1645.5)"/>
      <path d="M584.98 276.5l-1.9-7 53.1 1v5z" fill="#3a2924"/>
    </g>
    <g>
      <path d="M641.18 88c-4.1-5-12-8-23.8-7-12.6 1-22.2 6-29.1 14-6.3 8-10 18-11.7 31-.8 7-1.1 13-.8 18l-7.2 111c6.9 10 11.2 15 13.4 15 1.9 1 20.3 2 55.1 2-1.3-10-2.4-21-3.3-33-1.3-23-.2-38 3.3-44 1.7-4 4.1-6 7.4-8 3.9-2 6.9-3 9.1-4 8.5-3 15.1-10 19.7-22 4.7-11 5-22 .3-33-1.4-4-3.3-7-5.5-10-1.1-2-2.2-3-3-4l-23.9-26z" fill="#b7ccdb"/>
      <path d="M675.6-1575c-4.1-5-12-8-23.8-7-12.6 1-22.2 6-29.1 14-6.3 8-10 18-11.7 31-.8 7-1.1 13-.8 18l-7.2 111c6.9 10 11.2 15 13.4 15 1.9 1 20.3 2 55.1 2-1.3-10-2.4-21-3.3-33-1.3-23-.2-38 3.3-44 1.7-4 4.1-6 7.4-8 3.9-2 6.9-3 9.1-4 8.5-3 15.1-10 19.7-22 4.7-11 5-22 .3-33-1.4-4-3.3-7-5.5-10-1.1-2-2.2-3-3-4l-23.9-26z" fill="url(#t)" transform="translate(-34.42 1663)"/>
      <path d="M604.98 99c2.2-9 3.6-14 3.9-16-8.8 2-15.7 6-20.6 12-6.3 8-10.9 18-14.4 31-1.7 6-2.8 12-3.3 16l-6.3 108c9.6 13 15.5 20 17.7 20l1.9 1c-.5-13 0-31 1.7-55 1.9-29 4.6-47 7.9-56 1.7-4 2.2-8 1.4-9-.6-1 .3-3 3-6 3-3 5.5-8 7.1-15 2-7 1.7-12-.2-15-1.7-2-1.7-7 .2-16z" fill="#8fb2bc"/>
      <path d="M600.58 86c-3.8 4-6.5 8-7.6 12-.6 1-.9 3-.9 4 1.4 1 3.1 2 4.7 3 3.6 3 6.3 6 8 10 1.9 5 3 9 3 13 3-2 6.6-5 10.9-7 8.8-5 16.8-7 24.5-8 3.5 0 8.2 1 13.4 3 5.8 2 9.6 3 11.8 3-1.1-2-2.2-4-3.3-5l-24.1-26c-2.2-3-6.1-5-11.8-6-5.8-1-12.1-1-18.7 0-.3 1-1.9 1-5.2 2-2.2 1-3.8 2-4.7 2z" fill="#cce4f4"/>
      <path d="M609.98 120c-9.6 8-17.3 21-22.5 40-.8 3-3.3 16-7.7 39-2.1 11-2.4 32-1 63l-14-10 19.1 19c-.5-36 0-59 2.2-71 4.4-26 6.9-39 7.1-40 5.2-19 12.9-32 23.1-37 10.4-6 21.4-8 33.2-7 7.6 1 14.8 3 20.8 7 3 1 3.6 1 1.9-1-1.1-1-2.2-2-3.5-3l-6.1-3c-4.9-2-9.8-3-14.8-4-15.6-3-28.2 0-37.8 8z" fill="#889fa5"/>
      <path d="M659.58 123c-8.8-3-18.1-4-28-2-4.9 1-9 2-12.3 4 14.8-1 26.3-1 34.8 1 5.2 1 10.2 5 15.1 12l5.5 9c.8-3 1.1-6 .3-10-1.7-7-6.9-11-15.4-14z" fill="#c7dfe8"/>
      <path d="M634.88 106c-6.6 0-11.2 1-14.2 2-4.4 2-8.5 6-12.7 12 1.1-1 2.8-2 5.3-4 5.4-3 12.3-5 20.5-5 8.5 1 16.8 2 24.7 3l9.3 3-15.9-19c-2.7-3-7.4-7-14-13 3.1 4 5.8 8 8.3 11 4.9 8 5.7 12 2.7 11-7.1 0-11.8-1-14-1z" fill="#d7edf4"/>
      <path d="M591.28 193c.6-6 2.5-16 5.8-30l4.6-18-6.8 17c-4.7 14-6.6 26-6.3 38 .2 14-.6 37-2.2 71l14.5-3-5.5-1c-3.8-2-5.5-5-5.5-9 0-33 .3-55 1.4-65z" fill="#b1ccd3"/>
      <path d="M618.68 170c-3.8-1-6.8-2-9-4l1.1 8c1.4 7 3.6 12 7.1 17 1.4 2 2.2 8 2.8 16 .8 12 1.3 19 1.3 19 .9 8 4.4 20 10.5 36-.9-10-1.7-20-2-30-.5-21 .6-33 3.3-37 5.8-7 11-12 15.4-14 6.9-3 11-5 11.8-5 4.1-4 7.1-8 8.8-13l.8-6-9.1 9c-7.4 7-14.5 9-21.4 9-6.8-1-13.9-2-21.4-5z" fill="#9ab9c4"/>
      <path d="M576.18 195c0-2 .3-2 1.1-3 .7-1 1.6-2 2.4-2 1 0 1.8 1 2.4 2 .8 1 1.1 1 1.1 3 0 1-.3 2-1.1 2-.6 1-1.4 2-2.4 2-.8 0-1.7-1-2.4-2-.8 0-1.1-1-1.1-2zm5.2-3h-3.4c-.5 1-.7 2-.7 2 0 1 .2 2 .7 3h3.4c.6-1 .9-2 .9-3 0 0-.3-1-.9-2z" opacity=".551" fill="#91a5c1"/>
    </g>
    <g>
      <path d="M581.18 211l1.2 59-485.83 1v-47z" fill="#b7ccdb"/>
      <path d="M508.8-1355l1.2 58-485.85 2v-47z" fill="url(#u)" transform="translate(71.58 1567)"/>
      <path d="M120.4 235c-11.19 1-18.58 4-22.06 11-1.1 1-1.73 4-1.92 6 0 1 .05 2 .14 3-1.01-4-1.78-8-2.33-12-1.09-9-.54-14 1.65-14 2.73-2 36.21-3 100.4-4 52.9-1 100.8-1 143.4-1h142.5c63.7 0 97 0 99.7 1 2.4 1 3.2 6 2.4 15-.2 5-1.1 9-1.9 14-.5-2-1.7-5-3.5-7-3.8-5-9.3-9-16.7-11-6.1-2-77.8-4-215.3-6-25 0-67.8 0-127.5 2-54.62 1-87.69 2-98.98 3z" fill="#8aa6ad"/>
      <path d="M131.59 229c-8.39 2-16.98 2-25.97 2H94.65c-.28-3-.42-5-.42-8 0-5 .77-7 2.33-8 2.66-1 83.72-3 243.32-4 159.8-1 240-1 241.5 0 1.8 3 1.8 9 .5 18-9-3-17.8-4-26.3-4-93.2-1-156.7-1-191 0-142.6 2-220.3 3-232.99 4z" fill="#7a919b"/>
      <path d="M578.38 196c0-1 .3-2 1.2-3 .6-1 1.6-1 2.5-1 1 0 1.7 0 2.3 1 .8 1 1.2 2 1.2 3s-.4 2-1.2 3c-.6 0-1.3 1-2.3 1-.9 0-1.9-1-2.5-1-.9-1-1.2-2-1.2-3zm5.3-3h-3.5c-.5 1-.6 2-.6 3 0 0 .1 1 .6 2 .5 0 1.2 1 1.9 1 .6 0 1.3-1 1.6-1 .6-1 .9-2 .9-2 0-1-.3-2-.9-3z" opacity=".551" fill="#91a5c1"/>
    </g>
    <g>
      <path d="M107.88 218c-4 0-7.93-4-11.56-12-2.94-6-5.09-13-6.44-20-1.18-6 .61-13 5.34-21 4.93-8 11.06-13 18.16-15 7.8-3 31.9-5 72.2-6 40.6-1 63.4 0 68.4 3 4.2 2 6.8 8 7.7 18 .1 1 .1 7 .1 18 0 20-2.4 31-7.4 34-3.4 1-27.6 2-72.8 2-42.4 1-67 0-73.7-1z" fill="#cce4f4"/>
      <path d="M177.18 220c-40 1-63.3 0-69.7 0-3.7-1-7.23-5-10.43-12-2.71-6-4.79-13-6.36-21 9.95-7 30.29-12 61.29-14 20.8-2 42.8-3 66.1-2 11.8 0 21.3 1 28.5 2l2.1 3c1.6 3 3.1 6 4.4 9 0 19-2.4 30-7.1 33-3.1 1-26.1 2-68.8 2z" fill="#b7ccdb"/>
      <path d="M104.3-1955c-3.9 0-7.63-4-11.15-11-2.74-5-4.94-12-6.57-19 10.09-7 31.72-11 64.82-14 22.1-2 45.4-2 70.1-2 12.3 1 22.2 1 30 2l2.2 3c1.7 3 3.2 6 4.5 8 0 19-2.4 29-7.4 32-3.4 1-27.6 2-72.8 2-42.4 1-67 0-73.7-1z" fill="url(#v)" transform="translate(3.58 2173)"/>
      <path d="M140.68 176c-5 1-10 1-14.9 2-13.4 2-20.7 5-22 8-1.95 5-1.85 9 .1 14 2.1 4 6.4 7 12.7 8 7.2 1 23 1 47.1 1 24.8 0 41.9-1 51.2-3 6.5-1 14.4-1 23.7-2 6.2-1 9.6-2 10.5-5 .5-2 1.4-3 2.7-5-2.4-8-3.7-12-3.8-12-.5-3-5.3-5-15-7-7.6-1-11.1-2-10.6-2 3.6 0 9.1-1 16.2-1h3.7c2.8-1 5-4 6.8-8 1.7-4 3.1-8 4.1-12l.8-5 14.3 4-4.3 12c-1.9 5-1.3 15 1.7 29 1.4 7 3.1 13 4.9 19l-28.2 2c-.9 2-1.5 2-1.8 0h1.8c0-1 .1-1 .2-1-74.9 2-120.5 2-136.8 1-3.54-1-6.93-6-10.15-12-2.55-6-4.47-11-5.75-18l8.07-2c6.33-2 11.53-3 15.43-3 5.7-1 14.7-1 27.3-2z" fill="#85a5b2"/>
      <path d="M254.38 199l9.2 19h-29l7-2c4.8-1 7.8-2 9.3-4 2.1-2 3.3-4 3.7-8l-.2-5z" fill="#404d51"/>
      <path d="M179.68 164c7.4 0 18.4 0 32.7 2 13.4 2 21.8 2 25.1 2 2.5-1 5.7-3 9.5-7 2-2 3.8-4 5.2-6-.5 3-1.5 6-2.8 8-2.8 7-6.3 9-10.8 9h-27.1c-15.3-1-29.1-1-41.4 0-12.6 1-29.6 4-51.5 8l-28.7 6c-.55-1-.96-2-1.23-4-.47-3-.06-5 1.23-7 2.09-2 3.89-6 5.34-10l.41 5c1.18 3 4.22 5 9.25 4 1.7 0 10.9-1 27.7-4 16.7-2 32.4-4 47.1-6z" fill="#d7edf4"/>
      <g>
        <path d="M496.28 141c38.4 1 61.5 3 68.7 6 6.8 2 12.9 7 17.5 15 4.4 8 6.1 15 5 21-1.4 8-3.3 14-6.1 20-3.5 8-7.1 12-11.2 12-6.2 1-29.4 1-70 1-43.1 0-66.4-1-69.7-2-4.8-3-7.3-14-7.3-34 0-10 .3-17 .5-18 .9-10 3.1-16 7.1-18 4.6-3 26.6-4 65.5-3z" fill="#cce4f4"/>
        <path d="M429.78 171l29-2c23.3-1 45.8 0 66.9 2 31.5 3 51.9 7 61.5 14-1.4 7-3.6 13-6 19-3.6 7-7.2 11-10.7 11-6.2 1-29.7 1-70.3 1-43.1 0-66.4-1-69.7-2-4.8-3-7-14-7-32 1.3-3 2.7-5 4.4-8 .8-1 1.3-2 1.9-3z" fill="#b7ccdb"/>
        <path d="M316.7-1840l29-2c23.3-1 45.8 0 66.9 2 31.5 3 51.9 7 61.5 14-1.4 7-3.6 13-6 19-3.6 7-7.2 11-10.7 11-6.2 1-29.7 1-70.3 1-43.1 0-66.4-1-69.7-2-4.8-3-7-14-7-32 1.3-3 2.7-5 4.4-8 .8-1 1.3-2 1.9-3z" fill="url(#w)" transform="translate(113.08 2011)"/>
        <path d="M431.58 149c.8 4 2.2 8 3.8 12 2 4 4.2 7 6.6 8 1.4 0 2.8 1 3.6 0h6c4.1 1 7.4 1 9.6 1 .3 0-3 1-10.1 2-9.4 2-14 4-14.6 7-.2 1-.5 3-1.3 5-.6 2-1.1 4-2.2 7 1.3 2 2.2 3 2.4 5 1.1 3 4.4 4 10.2 5 3.8 0 11.5 1 22.5 2 9 2 25.5 3 49.1 3 23.3 0 38.1 0 44.9-1 5.9-1 10-4 12.2-8 1.7-5 1.7-9 0-14-1.4-3-8.2-6-20.9-8l-18.9-2 12 1c8.8 0 14.7 0 18.5 1 6.3 0 13.7 2 22.5 5-1.1 7-3 12-5.5 18-3 6-6.3 11-9.6 12-8.7 1-28.6 1-59.9 0-24.4 0-48 0-70.8-1 .3 0 .3 0 .3 1l-26.8-2c1.7-6 3.3-12 4.7-19 2.7-15 3.3-24 1.6-29l-4.1-12 13.4-4 .8 5zm10.4 60l1.7 1c-.3 2-.9 2-1.7-1z" fill="#85a5b2"/>
        <path d="M430.48 196v5c.3 3 1.4 6 3.3 8 2.2 2 7.4 4 15.9 6h-27.9l8.7-19z" fill="#404d51"/>
        <path d="M511.08 169c-11.8-1-24.9-1-39.5 0h-25.7c-4.4 0-7.7-3-10.5-9l-3-8 5 6c4.1 4 7.1 6 9.6 6 3 1 10.9 0 23.5-1 13.8-2 24.5-2 31.3-2 14.3 2 29.4 3 45 6 16.9 3 25.6 4 26.4 4 4.7 1 7.7-1 8.8-4l.3-5 1.3 4c1.4 2 2.8 5 3.9 6 1.3 2 1.6 4 1.1 7 0 2-.6 3-1.1 4-8-2-17-4-27.3-6-20.8-4-37-7-49.1-8z" fill="#d7edf4"/>
      </g>
      <g>
        <path d="M253.895 198.582l9.19 18.781-29.174.7 6.994-1.799c4.895-1.498 7.982-2.897 9.494-4.096 2.097-1.998 3.296-4.795 3.696-8.491l-.2-5.095zM430.888 195.984v4.995c.3 3.697 1.399 6.494 3.297 8.392 2.197 2.098 7.392 4.096 15.884 5.994l-28.072-.6 8.89-18.78z" fill="#404d51"/>
        <path d="M262.287 147.133c5.594-4.096 31.468-6.593 77.592-7.193 45.455-.699 71.428.6 78.322 3.797 6.093 2.797 10.49 7.492 12.987 14.285 2.197 5.695 2.697 12.388 2.197 20.08-.899 11.589-1.398 18.881-1.998 21.978-1.598 8.692-4.595 13.187-8.591 13.587-7.592.799-33.966 1.498-78.821 1.998-48.522.699-74.695.2-78.292-1.499-3.496-1.698-6.893-7.892-9.99-18.481-2.597-8.792-3.996-15.185-3.996-19.181 0-3.896.8-8.691 2.398-14.286 2.098-7.492 4.785-12.487 8.192-15.085z" fill="#cce4f4"/>
        <path d="M265.683 214.166c-2.597-1.299-5.195-5.295-7.792-12.088-1.898-4.995-3.596-10.889-5.095-17.582l-1.099-7.992 23.477-4.396c20.58-2.997 42.158-4.495 65.304-4.495 56.844 0 87.912 2.298 92.907 6.793l.2.3-.2 3.396c-.899 11.389-1.398 18.282-1.698 20.78-1.299 8.191-3.796 12.986-7.093 14.385l-5.594.6c-17.782.899-45.355 1.598-82.947 1.998-43.597.4-66.983-.1-70.37-1.699z" fill="#b7ccdb"/>
        <path d="M26.73-366.2c-2.6-1.3-5.2-5.3-7.8-12.1-1.9-5-3.6-10.9-5.1-17.6l-1.1-8 23.5-4.4c20.6-3 42.2-4.5 65.37-4.5 56.9 0 88 2.3 93 6.8l.2.3-.2 3.4c-.9 11.4-1.4 18.3-1.7 20.8-1.3 8.2-3.8 13-7.1 14.4l-5.6.6c-17.8.9-45.4 1.6-83.03 2-43.64.4-67.05-.1-70.44-1.7z" fill="url(#x)" transform="matrix(.999 0 0 .999 238.98 580)"/>
        <path d="M258.19 190.19l6.195 4.695c4.895 3.297 9.69 5.295 14.085 6.094 5.994 1.1 26.274 1.599 61.21 1.399 31.168-.2 54.145-.6 69.23-1.399 9.59-.3 16.184-2.597 19.48-6.693.6-.6.9-1.199 1.1-1.798l-1.1 6.593c-1.598 7.493-3.796 11.888-6.693 13.187-2.997 1.399-27.073 2.198-72.427 2.597-45.025.3-70.8-.1-77.693-1.198-5.394-.9-9.19-4.995-11.488-12.488l-1.898-10.989z" fill="#7b9aaa"/>
        <path d="M255.294 157.023l2.897 13.187c.2 1.1 11.688.3 34.765-2.298 26.873-3.096 44.495-4.495 53.017-4.295 22.477.7 35.864 1.199 40.16 1.498 10.39.6 20.779 1.699 30.969 3.397 9.69 1.698 14.285 0 14.585-5.195v-1.399c.8 3.097 1.399 7.293 1.698 12.488-4.995-.4-12.187-.9-22.077-1.299-19.481-.999-41.26-1.498-65.635-1.498-21.448 0-44.226 1.199-68.301 3.796-16.684 1.698-25.275 2.098-25.675 1.099-.5-1.599-.1-5.295 1.299-11.089l2.298-8.392z" fill="#d7edf4"/>
      </g>
    </g>
    <g>
      <path d="M575.28 60.8c5 2.5 12.4 4.2 22.2 5.1 7.7.6 12.6 2.6 15 6.1 1.7 2.2 1.7 4.9.3 8.1-.6 1.9-2.5 5.6-6 10.9-8.2 12.9-13.1 25.2-15.3 36.9-2.2 12.7-4.4 21.3-6.6 25.8-1.4 3.5-3.8 6.4-7.4 8.6-2.7 1.9-12.1 1-28.2-2.7-13.2-3.2-24.7-6.7-34.8-10.3-2.2-.8-8.5-2.8-19.5-5.8-6-1.7-10.1-3.7-11.5-5.9-1.6-2.1 1.4-9.7 8.8-22.9 9.9-17.6 15.9-29.1 18.1-34.3 2.5-6.4 4.7-14.4 6.3-23.9.8-5.7 2.5-9.1 5.1-10.1 3.3-1.4 11-.4 22.8 2.9s21.9 7.1 30.7 11.5z" fill="#ba906e"/>
      <path d="M589.28 65c2.7.5 6.9.9 11.8 1.3 4.9 1.6 8.7 3.5 11.4 5.7.8 1 1.4 2.2 1.7 3.5-1.1 2.4-6.1 4.1-14.7 4.9l-83.3-21.1c.8-3.9 1.3-6.7 2.2-8.4.8-2.3 1.9-3.8 3.4-4.5 7.2-3.5 15.9-3.2 26.6.9.9.3 9.9 4.8 26.9 13.5 4.1 2.1 8.8 3.5 14 4.2z" fill="#e5cdac"/>
      <path d="M584.58 132.8c-1.9 8.4 5-7.4 20.3-47.5l5.7-1.2c-3.3 4.4-6.5 10.1-9.8 17.3-4.6 9.8-7.9 18.6-9.3 26.5-1.6 8.4-3 14.9-4.1 19.6-2.5 3.6-4.7 6.4-6.9 8.5-4.6 4.4-5.5-1.6-1.9-17.8l6.6-25.8.8 5.5c.3 4.6-.3 9.6-1.4 14.9z" fill="#aa8265"/>
      <path d="M574.78 146.8l5.7-16.2-.8 8.5c-.3 6.1.3 9.8 1.4 11.3 1.1 1.4 3.3-1.8 6.3-9.9l4.1-12.6c-2.2 12.7-4.4 21.3-6.3 25.8-1.7 3.5-4.1 6.4-7.4 8.6-1.9 1.2-5.2.9-10.4-.9.2-.3.8-.5 1.3-.5 2 0 3.3-1.4 4.1-4.3.6-4.2 1.4-7.4 2-9.8zM609.78 74.1c2.7.5 4.1 1.6 4.4 3.6-.3 1.1-1.7 3.3-3.6 6.4-1.6-.9-3.6-.5-5.7 1.2l-9.6 7.8 3.9-10c3.3-6.5 6.8-9.6 10.6-9z" fill="#99745b"/>
      <path d="M566.28 63.5c4.4 2.6 10.9 4.5 19.7 5.8 6.6 1 11 3.3 13.5 6.8 2.4 3.7 1.3 9.8-3.3 18.3-7.4 13.6-12.1 23.5-14 29.6-2.2 7.1-4.4 16.1-6.3 27.1-1.1 6-2.8 9.8-5.2 11.2-2.5 1.9-11.3 1-26.4-2.7-12.6-3.2-23.5-6.7-32.5-10.3-1.7-.8-7.7-2.7-18.1-5.8-5.5-1.7-8.8-3.7-10.4-5.9-1.1-1.7.2-8.1 4.3-19.2 3.9-10.5 7.7-18.5 11-24.2 0-.1 2.5-3.6 6.9-10.4 3.3-4.9 5.5-8.8 6.6-11.8 2.7-7.6 4.1-13.4 3.5-17.4 0-1.6.8-2.9 2.8-3.7 3.2-1.4 10-.8 20.4 2.1 10.7 2.8 19.8 6.3 27.5 10.5z" fill="#ead3ac"/>
      <path d="M416.8 455.2c2.5 3.7 1.4 9.8-3.3 18.3-7.4 13.6-12 23.5-13.9 29.6-2.2 7.1-4.3 16.1-6.3 27-1.1 6.1-2.8 9.8-5 11.3-2.5 1.9-11.3 1-26.3-2.8-12.8-3.2-23.6-6.6-32.6-10.2-1.9-.8-7.9-2.7-18.1-5.8-5.5-1.7-8.9-3.7-10.4-5.9-1.2-1.7.3-8.1 4.4-19.2 3.8-10.5 7.5-18.6 10.8-24.2.1-.2 2.5-3.6 7-10.4 3.3-4.9 5.5-8.9 6.6-11.8 2.8-7.6 3.9-13.4 3.6-17.4-.2-1.7.7-2.9 2.6-3.7 3.1-1.5 10-.8 20.6 2 10.4 2.9 19.5 6.4 27.2 10.6 4.4 2.6 11.1 4.5 19.8 5.8 6.6 1 11.1 3.3 13.3 6.8z" opacity=".629" fill="url(#y)" transform="translate(182.48 -378)"/>
      <path d="M556.38 63.1c-4.7-2.5-9.3-4.4-14.3-5.9-7.4-2.2-13.7-2.5-19.4-.9l-6.5 3c-.6-1-.6-2.1-.6-3.3-.3-2.4.8-4.1 2.8-5.1 2.4-1.3 8.4-.8 17.7 1.5 9.3 2.3 16.4 5.1 21.7 8.5 2.2 1.5 6.3 3.2 12.3 5.1 6.6 2.1 13.2 3.6 19.8 4.7 5.7.8 9 2.6 9.8 5.6.6 1.4.3 2.8-.2 4.1 0-1.4-1.4-3.2-4.2-5.6-1.6-1.4-5.4-2.6-11.5-3.7-9-1.7-14.5-2.8-16.2-3.3-3.3-.8-7.1-2.4-11.2-4.7z" fill="#ffe3bb"/>
      <path d="M589.58 108.8l-6.1 10c-3.5 8.1-5.4 15.8-5.2 23.2.6 11.6-2.2 18.4-7.6 20.3-2.2.9-5.8.6-10.7-.8l-6.6-2.6 8.5 2.3c5.7.8 9.3-.7 10.9-4.5 1.1-3.2 2-6.5 2-9.8 0-4.3.2-8.4 1.1-12.3 1.1-4.6 3.5-10.2 7.6-17 2.2-3.4 4.2-6.3 6.1-8.8z" fill="#edd3b0"/>
      <path d="M595.88 87.5l-8.5 18.7c-6 13.5-9.9 23-11.5 28.4-1.7 5.3-2.5 8-2.5 8.2-.3 2.9-.8 7.5-.8 13.9 0 6.3-9.1 6.9-27.5 1.8-.5-.1-14.5-4.8-41.6-14-7.4-2.6-13.1-5.6-17.2-9.2 0-.3-.3-.6-.6-.9.3.1.8.2 1.1.3 1.9.4 6.9 1.3 14.6 2.6 8.2 1.7 17 2.8 25.6 3.3 5.8.4 12.9.6 21.4.6 8.8 0 19.2-9 31.6-26.9 6.3-8.9 11.5-17.8 15.9-26.8z" fill="#cca67f"/>
      <path d="M584.78 64.6c-1.3.2-2.2.8-1.9 1.8.3 1.6 1.1 2.8 2.5 3.5-7.7-2.4-14-3.8-18.4-4.2-3.8-.3-7.9-2.5-12.3-6.4-4.7-4.1-5.2-5.6-1.7-4.8 3.9.7 5.2-.4 3.9-3.5 6.5 4.4 12 7.7 16.1 9.8 3.6 1.7 7.4 3 11.8 3.8z" fill="#d8c0a4"/>
      <path d="M553.28 57.1c2.5 4.5 3.9 9.3 3.9 14.6.2 8.7-2.8 16.1-9 22.4-6.1 6.3-13.6 9.5-22.4 9.5-4.9.1-9.6-.9-14.1-3.1-4.3-2.1-8-4.9-11-8.7l5.9-8.6c2 3.4 4.8 6.1 8.2 8.1 3.6 2 7.4 2.9 11.6 2.8 6.2 0 11.5-2.3 15.9-6.8s6.5-9.8 6.4-16.1c0-6.2-2.4-11.4-7-15.7-4.4-4.4-9.8-6.6-16-6.5-2 0-4.4.4-7.2 1.3.9-1.7 2.1-2.8 3.4-3.3 5.9-2.9 13.1-3.1 21.5-.9 4.2 2.9 7.5 6.5 9.9 11z" opacity=".551" fill="#91a5c1"/>
      <path d="M526.08 55.9c4.8 0 8.8 1.7 12.2 5.1 3.4 3.2 5.1 7.2 5.1 11.9s-1.7 8.8-5.1 12.1c-3.4 3.3-7.4 5-12.2 5-3.8 0-7.2-1.1-10.2-3.4-3-2.2-5.1-5.1-6.1-8.6.9-1.7 1.7-3.5 2.6-5.4 2-5.7 3.1-10.1 3.4-13.3 3-2.3 6.4-3.4 10.3-3.4zm12.6 16.7c0-3.4-1.2-6.2-3.5-8.6-2.4-2.4-5.3-3.6-8.7-3.6-3.4 0-6.2 1.2-8.7 3.6-2.3 2.4-3.5 5.2-3.5 8.6 0 3.4 1.2 6.3 3.5 8.7 2.5 2.3 5.3 3.5 8.7 3.5 3.4 0 6.3-1.2 8.7-3.5 2.3-2.4 3.5-5.3 3.5-8.7z" opacity=".551" fill="#91a5c1"/>
      <path d="M526.08 63.8c2.3 0 4.3 1 5.9 2.8 1.7 1.8 2.5 4 2.5 6.7s-.8 4.9-2.5 6.7c-1.6 1.9-3.6 2.8-5.9 2.8-2.3 0-4.2-.9-5.7-2.8-1.6-1.8-2.4-4-2.4-6.7 0-2.6.8-4.8 2.4-6.7 1.5-1.8 3.4-2.8 5.7-2.8zm4.4 14.2c1.1-1.4 1.6-3.1 1.6-5 0-1.8-.5-3.4-1.6-4.8-1.2-1.3-2.6-1.9-4.3-1.9-1.5 0-2.9.6-4.1 1.9-1.1 1.4-1.7 3-1.7 4.8 0 1.9.6 3.6 1.7 5 1.2 1.3 2.6 1.9 4.1 1.9 1.7 0 3.1-.6 4.3-1.9zM538.18 134.2c-4.1-3.7-8.9-5.5-14.4-5.5-5.1.1-9.6 2-13.4 5.5-3.7 3.5-5.8 7.8-6.3 12.9l-8.2-2.4c1.1-6.6 4.2-12.2 9.3-16.6 5.1-4.4 11.1-6.7 17.9-6.9 7.9-.1 14.6 2.6 20.2 8 5.5 5.3 8.4 11.8 8.5 19.6 0 4.4-.9 8.5-2.8 12.3l-7.9-1.9c2.1-3.2 3.1-6.8 3.1-10.8-.1-5.6-2.1-10.3-6-14.2z" opacity=".551" fill="#91a5c1"/>
      <path d="M524.18 134.8c4.2 0 7.8 1.4 10.8 4.4 3 2.9 4.4 6.5 4.4 10.7 0 3.2-.8 5.9-2.5 8.2l-4.3-1.2c1.9-2.1 2.8-4.6 2.8-7.3 0-3-1-5.6-3.1-7.7-2.2-2.1-4.8-3.1-7.8-3.1s-5.4 1-7.6 3.1c-2.1 2.1-3.2 4.7-3.2 7.7l.2 1-4.7-1.8c.3-4 1.9-7.2 4.8-9.9s6.4-4.1 10.2-4.1z" opacity=".551" fill="#91a5c1"/>
      <path d="M524.28 140.7c2.3 0 4.2.9 5.8 2.7 1.6 1.9 2.5 4.2 2.5 6.7 0 2.4-.7 4.5-2 6.2l-2.7-.8c1.6-1.4 2.5-3.2 2.5-5.5 0-1.8-.6-3.4-1.7-4.8-1.2-1.3-2.6-1.9-4.2-1.9-1.7 0-3.1.6-4.1 1.9-1.1 1.4-1.7 3-1.7 4.8 0 1 .1 1.8.4 2.5l-2.8-1-.1-1.4c0-2.5.8-4.8 2.5-6.7 1.5-1.8 3.3-2.7 5.6-2.7z" opacity=".551" fill="#91a5c1"/>
      <g fill="#91a5c1">
        <path d="M580.48 110.5c-2-.7-5.2-1-9.8-1-3.7.1-6.9 1.5-9.4 4.2-2.7 2.5-4 5.6-3.9 9.3.1 3.6 1.5 6.8 4.1 9.5 2.7 2.5 5.9 3.7 9.6 3.7 3.5-.1 6.7-2.4 9.6-6.8 2.8-4.1 4.1-8.1 4-12.2-.1-3.3-1.5-5.6-4.2-6.7zm-23.5-.3c3.7-3.6 8-5.5 13.2-5.7 12.9-.2 19.5 4.1 19.6 13 .1 5.4-1.7 10.7-5.5 15.9-4 5.6-8.5 8.4-13.4 8.5-5.3.1-9.7-1.6-13.5-5.2-3.6-3.6-5.5-8-5.6-13.2-.1-5.1 1.6-9.5 5.2-13.3z" opacity=".551"/>
        <path d="M578.38 113.8c2.1.5 3.2 2.1 3.2 4.5 0 3-1.1 6.3-3.2 9.8-2.3 3.7-4.7 5.6-7.4 5.6-2.8 0-5.2-1-7.1-2.9-2-2-3.1-4.4-3.1-7.1 0-2.9 1.1-5.2 3.1-7.2 1.9-2 4.3-3 7.1-3 4.2 0 6.7.1 7.4.3zm-2.3 14.7c1.3-1.3 2-3 2.3-5.1.5-3.2-.1-5.3-1.8-6.2-.9-.6-2.7-.9-5.5-.9-2 0-3.7.7-5 2-1.5 1.4-2.2 3.1-2.2 5.1 0 2 .7 3.7 2.2 5.1 1.3 1.4 3 2.2 5 2.2s3.6-.8 5-2.2z" opacity=".551"/>
        <path d="M574.78 119.4c1.1 1.2 1.7 2.7 1.7 4.4 0 1.7-.6 3.2-1.7 4.5-1 1.2-2.2 1.8-3.8 1.8-1.6 0-2.8-.6-3.8-1.8-1.1-1.3-1.7-2.8-1.7-4.5 0-1.7.6-3.2 1.7-4.4 1-1.3 2.3-1.9 3.8-1.9 1.4 0 2.7.6 3.8 1.9zm-.8 7.6c.8-.9 1.1-2 1.1-3.3 0-1.3-.3-2.4-1.1-3.2-.8-.9-1.8-1.4-2.9-1.4-1.1 0-2 .5-2.7 1.4-.8.8-1.2 1.9-1.2 3.2 0 1.3.4 2.4 1.2 3.3.7.8 1.6 1.2 2.7 1.2s2.1-.4 2.9-1.2z" opacity=".551"/>
      </g>
      <path d="M570.48 79.7c-1.6 1.7-2.4 3.7-2.4 6.1.1 2.4.9 4.4 2.6 6 1.7 1.7 3.8 2.5 6.2 2.5 2.3-.1 4.4-1 6.1-2.6 1.7-1.7 2.4-3.8 2.4-6.2-.1-2.4-1-4.4-2.6-6-1.8-1.7-3.8-2.4-6.2-2.4-2.4 0-4.4.9-6.1 2.6zm-2.7-2.1c2.4-2.4 5.2-3.6 8.5-3.6 3.4-.1 6.3 1 8.6 3.3 2.4 2.3 3.6 5.1 3.6 8.5.1 3.3-1 6.1-3.4 8.5-2.3 2.3-5.1 3.5-8.4 3.5-3.4 0-6.2-1.1-8.6-3.2-2.4-2.3-3.6-5.2-3.7-8.5 0-3.3 1.1-6.2 3.4-8.5z" opacity=".551" fill="#91a5c1"/>
      <path d="M576.88 92.6c-1.9 0-3.4-.6-4.7-1.9-1.3-1.2-1.9-2.7-1.9-4.5 0-1.8.6-3.4 1.9-4.5 1.3-1.3 2.8-2 4.7-2 1.8 0 3.3.7 4.5 2 1.3 1.3 1.9 2.8 1.9 4.5 0 1.8-.6 3.3-1.9 4.5-1.2 1.3-2.7 1.9-4.5 1.9zm0-11.2c-1.3 0-2.4.5-3.3 1.4-.9.9-1.4 2-1.4 3.3 0 1.2.5 2.3 1.4 3.2.9 1 2 1.4 3.3 1.4 1.2 0 2.3-.4 3.2-1.4 1-.9 1.4-2 1.4-3.2 0-1.3-.4-2.4-1.4-3.3-.9-.9-2-1.4-3.2-1.4z" opacity=".551" fill="#91a5c1"/>
      <path d="M573.28 86.3c0-1.1.3-2 1.1-2.8.7-.9 1.6-1.3 2.5-1.3 1 0 1.8.4 2.4 1.3.8.8 1.1 1.7 1.1 2.8 0 1.1-.3 2.1-1.1 2.9-.6.8-1.4 1.2-2.4 1.2-.9 0-1.8-.4-2.5-1.2-.8-.8-1.1-1.8-1.1-2.9zm5.3-2.2c-.4-.5-1-.8-1.7-.8s-1.3.3-1.8.8c-.5.7-.7 1.4-.7 2.1 0 .8.2 1.6.7 2.2.5.5 1.1.8 1.8.8s1.3-.3 1.7-.8c.6-.6.9-1.4.9-2.2 0-.7-.3-1.4-.9-2.1z" opacity=".551" fill="#91a5c1"/>
      <path d="M561.68 71.9c1.4 1.9 1.6 3.5.8 4.7-1.7 2.6-3.7 4-5.9 4.1-2.4.1-5.3-1.3-8.7-4.1-3-2.3-8.4-4.3-16.4-6.1-4.9-1.2-9.3-1.9-12.9-2.3l.3-.6c2.3-2 5.3-3.6 9.3-4.9 4.9-.8 10.4-.2 16.6 1.8 4.3 1.4 10 3.8 16.9 7.4z" opacity=".41" fill="#e5cdac"/>
      <path d="M600.98 81.7l12.9-6.6c.3 2.5-2.5 8.6-8.4 18.5-7.1 11.5-11.8 23-13.9 34.3-2.3 12.7-4.4 21.4-6.4 25.8-1.5 3.6-3.9 6.5-7.4 8.7-1.4.9-4.3 1.1-8.8.7 1-.2 1.6-.5 1.9-.7 2.2-1.5 3.9-5.2 5-11.3 2-11 4.1-20 6.3-27 2.2-6.9 6-15.5 11.6-25.4 4.7-8.3 7.1-14 7.2-17z" opacity=".301" fill="#ba906e"/>
    </g>
    <g>
      <path d="M539.68 120.3c-.8 15.3-4.6 26.3-12 33-6.9 6.5-17.3 9.3-31.6 8.5-12.2-.8-22.4-5-30.9-12.8-8.5-7.9-12.9-17.5-12.9-28.7 0-11.5 4.4-21.2 12.9-29.4 8.5-8.1 19-12.2 30.9-12.2 11.8 0 22.2 4.5 31.3 13.5 8.8 8.7 12.9 18.1 12.3 28.1z" fill="#ba906e"/>
      <path d="M496.08 161.8l-4.4-.6 13.2-7.6c6-3.8 14-10.8 23.9-21.1l-.9 1.7-1.6 4.7c-.5 2.9.5 4.1 3.3 3.6 2.2-.5 4.4-1.5 6.8-3.2-2.7 8.4-7.6 14.4-14.2 18.1-6.6 3.6-15.4 5-26.1 4.4z" fill="#aa8265"/>
      <path d="M496.08 161.8l-.5-.2 25.2-16.1-2.2 5.6c-.5 3.4 1.1 4.2 5 2.6l7.1-3.3c-7.1 8.6-18.7 12.4-34.6 11.4z" fill="#99745b"/>
      <path d="M527.08 98.9c-3.8 0-4.9 3.2-3.5 9.6.8 3.1 1.9 6.2 3.5 9.4-6-5.4-16.4-13.4-31-23.9-8.5-6.1-17.7-5-27.6 3.2-5.5 4.6-10.7 10.8-15.9 18.7 1.4-10.5 6-19.3 14.3-26.3 8.2-7.2 18.1-10.9 29.2-10.9 18.1 0 30.5 7.3 37.3 21.8-.2.4-1.3.3-3.3-.4-1.9-.8-3-1.2-3-1.2z" fill="#e5cdac"/>
      <path d="M516.98 100.8l-17-11.8 8.7 3.6c6.4 2.1 9.9 2.4 11.3.8 1.9-2.5 2.5-5.5 1.4-8.8l4.9 5.4c3.8 3.9 5.8 6.9 6.3 8.9.6 1.6 1.1 2.9 1.7 3.7 0 .3-1.1 1.3-2.8 3-1.9 1.6-4.4 1.2-7.9-1.2l-4.7-4.3c4.4 4.2 3.8 4.5-1.9.7z" fill="#d8c0a4"/>
      <path d="M529.58 125.1c0 10.1-3.8 18.8-11.3 26-7.6 7.1-16.7 10.7-27.4 10.7-10.6 0-19.6-3.6-27-10.7-7.7-7.2-11.6-15.9-11.6-26 0-10.2 3.9-18.8 11.6-25.9 7.4-7.2 16.7-10.9 27-10.9 10.7 0 19.8 3.7 27.4 10.9 7.5 7.1 11.3 15.7 11.3 25.9z" fill="#ead3ac"/>
      <path d="M379.1 550.3c0 10.2-3.7 18.8-11.2 26.1-7.6 7.1-16.7 10.7-27.3 10.7-10.6 0-19.7-3.6-27.2-10.7-7.6-7.3-11.4-15.9-11.4-26.1 0-10.1 3.8-18.8 11.4-25.8 7.5-7.3 16.6-10.9 27.2-10.9 10.6 0 19.7 3.6 27.3 10.9 7.5 7 11.2 15.7 11.2 25.8z" opacity=".602" fill="url(#z)" transform="translate(150.28 -426)"/>
      <path d="M517.78 99.4c-10.2-9.2-21.9-12.1-35.6-8.7-10.4 2.6-18.3 7.6-23.8 14.9l-5.5 10.3 6-12.3c5.8-8.6 13.2-13.9 22.2-15.8 8.2-1.7 15-1.7 20.8 0 4.4 1.3 9.9 4.4 16.2 9.3 3.5 2.6 7.1 8.3 10.7 17.1-2.5-5.3-6.1-10.2-11-14.8z" fill="#ffe3bb"/>
      <path d="M506.48 156.6c3.9-1.3 8-4.1 12.7-8.2 2.2-2.2 4.1-4.2 5.7-6.1-1.3 2.1-3 4.3-4.9 6.6-3.9 4.7-7.4 7.8-10.4 9-3.1 1.3-8 2.4-14.8 3.3l-9 1 7-1.7c5.2-1.3 9.9-2.6 13.7-3.9z" fill="#edd3b0"/>
      <path d="M526.78 116.3l-.5 15.9c-1.9 11.4-6.9 19.1-14.8 23.1-10.2 5.2-20.9 6.3-31.7 3.2l-13.5-6.2 13.2-.2c9.8-1.1 18-3.7 24-7.9 6.1-4.1 11.8-10.1 17.3-17.6 2.5-3.9 4.7-7.3 6-10.3z" fill="#cca67f"/>
      <g fill="#91a5c1">
        <path d="M479.88 145.6c0 1.8-.6 3.3-1.8 4.4-1.1 1.3-2.6 2-4.3 2-1.7 0-3.1-.7-4.3-2-1.2-1.1-1.8-2.6-1.8-4.4 0-1.7.6-3.2 1.8-4.3 1.2-1.2 2.6-1.8 4.3-1.8 1.7 0 3.2.6 4.3 1.8 1.2 1.1 1.8 2.6 1.8 4.3zM498.78 113.4c0 1.8-.7 3.2-1.8 4.4-1.2 1.2-2.7 1.8-4.4 1.8-1.7 0-3.1-.6-4.3-1.8-1.1-1.2-1.7-2.6-1.7-4.4 0-1.7.6-3.2 1.7-4.4 1.2-1.1 2.6-1.7 4.3-1.7 1.7 0 3.2.6 4.4 1.7 1.1 1.2 1.8 2.7 1.8 4.4zM521.78 135.4c0 1.7-.6 3.2-1.8 4.3-1.2 1.2-2.7 1.8-4.4 1.8-1.6 0-3.1-.6-4.2-1.8-1.2-1.1-1.8-2.6-1.8-4.3 0-1.8.6-3.3 1.8-4.4 1.1-1.2 2.6-1.8 4.2-1.8 1.7 0 3.2.6 4.4 1.8 1.2 1.1 1.8 2.6 1.8 4.4zM525.88 153.6l-.1 1.2c-4.9 3.7-9.1 5.9-12.6 6.8-2.3-1.7-3.5-3.9-3.5-6.8 0-2.2.8-4 2.5-5.5 1.4-1.3 3.3-2.2 5.6-2.7 3.5-.6 5.8-.2 7 1.2.7 1.1 1.1 3 1.1 5.8zM493.68 99.7c0 1.5-.5 2.7-1.4 3.6-1 1-2.2 1.5-3.6 1.5-1.3 0-2.4-.5-3.3-1.5-1-.9-1.5-2.1-1.5-3.6 0-1.3.5-2.4 1.5-3.4.9-1 2-1.5 3.3-1.5 1.4 0 2.6.5 3.6 1.5.9 1 1.4 2.1 1.4 3.4zM468.78 131.2c0 2-.6 3.6-1.9 5-1.4 1.4-3 2-4.9 2-2 0-3.6-.6-4.8-2-1.4-1.4-2.1-3-2.1-5 0-1.9.7-3.5 2.1-4.9 1.2-1.4 2.8-2 4.8-2 1.9 0 3.5.6 4.9 2 1.3 1.4 1.9 3 1.9 4.9zM534.78 124.5c0 2-.7 3.7-2 5-1.3 1.3-2.9 2-4.8 2-2 0-3.5-.7-4.8-2-1.4-1.3-2.1-3-2.1-5 0-1.9.7-3.5 2.1-4.8 1.3-1.3 2.8-2 4.8-2h4.8c1.3.6 2 2.9 2 6.8zM502.68 80.3c0 1.8-1.2 3.1-3.5 4.1-2 .8-4.2 1.1-6.6 1.1-1.7 0-2.8-.3-3.2-1.1-.2-.5-.4-1.9-.4-4.1 2.6-.4 5-.7 7.3-.7 1.5 0 3.7.2 6.4.6v.1zM476.98 124.5c0 1.3-.4 2.4-1.3 3.3-.9.8-1.9 1.2-3.2 1.2-1.3 0-2.3-.4-3.1-1.2-.9-.9-1.3-2-1.3-3.3 0-1.1.4-2.2 1.3-3.1.9-.8 1.9-1.3 3.1-1.3 1.3 0 2.3.5 3.2 1.3.9.9 1.3 2 1.3 3.1zM479.38 104c0 1.3-.4 2.3-1.3 3.1-.8.8-1.8 1.3-3.1 1.3-1.2 0-2.3-.5-3.2-1.3-.8-.8-1.2-1.8-1.2-3.1s.4-2.4 1.2-3.3c.9-.8 1.9-1.2 3.2-1.2 1.3 0 2.3.4 3.1 1.2.9.9 1.3 2 1.3 3.3zM504.88 154.4c0 1.3-.4 2.4-1.3 3.2-.9.9-1.9 1.3-3.2 1.3-1.2 0-2.2-.4-3-1.3-.9-.9-1.4-2-1.4-3.2 0-1.2.5-2.2 1.4-3.1.8-.9 1.8-1.4 3-1.4 1.3 0 2.3.5 3.2 1.4.9.9 1.3 1.9 1.3 3.1zM502.98 141.1c0 1.2-.5 2.3-1.4 3.2-.8.9-1.8 1.3-3 1.3s-2.2-.4-3.1-1.3c-.9-.8-1.4-1.9-1.4-3.2 0-1.2.5-2.2 1.4-3.1.9-.9 1.9-1.4 3.1-1.4 1.2 0 2.2.5 3 1.4.9.9 1.4 1.9 1.4 3.1zM515.98 108.1c0 1.3-.4 2.3-1.2 3.1-.9.9-2 1.4-3.2 1.4-1.1 0-2.2-.5-3.1-1.4-.9-.8-1.4-1.8-1.4-3.1 0-1.2.5-2.2 1.4-3.2.9-.9 2-1.3 3.1-1.3 1.2 0 2.3.4 3.2 1.3.8.9 1.2 1.9 1.2 3.2zM522.08 91.1c0 1.2-.8 2.2-2.4 3.1-1.3.7-2.7 1.1-4.1 1.1-1.2 0-2.2-.5-3-1.4-.9-.9-1.4-2-1.4-3.2 0-1.2.5-2.2 1.4-3.1.8-.9 1.8-1.4 3-1.4 1.3 0 2.7.5 4.1 1.5 1.6 1.1 2.4 2.3 2.4 3.4z" opacity=".539"/>
      </g>
      <path d="M498.18 135.1c.8 1.5 1.7 2.9 2.7 4.4-1.5-2.1-3.6-3.7-6.1-5.1-2.8-.5-4.9.1-6.3 1.8-1.8 2.1-3 4.7-3.6 7.8-.4 1.6-.6 3-.6 4.2-1.1-5.6-.6-10.1 1.5-13.3 1.2-1.8.1-2.7-3.4-2.9-1.7 0-3.6.1-5.6.4 1.7-.8 2.9-1.7 3.5-2.8 1.5-2.5-.3-5-5.4-7.6-2-.9-4.2-5.1-6.9-12.7 4.5 5.5 8.1 9 11 10.7 2.8 1.6 6.1 2.9 9.7 3.8l-2.2-9.3c-.3-.8-.1-2 .4-3.6.3-.7.5-1.4.7-2l2.2 7.3c.9-2 1.8-3.7 2.6-4.9 1.3-1.6 5.1-4.9 11.3-10-5.8 7.1-9.2 11.6-10 13.7-.8 2.1-.4 4.2 1.2 6.2l2.8-.8c1.9-.7 3.2-1 3.9-1 1.3 0 3.8-.4 7.4-1.2-2 2-4.2 3.2-6.7 3.7-1.5.3-2.8.9-3.8 1.8l-1 1.2.8 2.2c1.1 1.5 2.6 2.2 4.6 2.2 3.3 0 6.7.3 10.3 1.1-.9.5-2.1.9-3.7 1.3-3.4.6-7.2.5-11.4-.5-1.6-.4-1.5.9.1 3.9z" opacity=".57" fill="#ba906e"/>
      <path d="M497.48 126.2c0 2-.8 3.7-2.2 5.2-1.6 1.4-3.6 2.2-5.5 2.2-2.2 0-4-.8-5.4-2.2-1.6-1.4-2.4-3.1-2.4-5.2 0-2 .8-3.8 2.4-5.3 1.4-1.4 3.2-2.1 5.4-2.1 1.9 0 3.9.7 5.5 2.1 1.4 1.5 2.2 3.3 2.2 5.3z" fill="#99745b"/>
      <path d="M493.88 125.1c0 1.4-.5 2.6-1.6 3.7-1.1 1-2.2 1.5-3.6 1.5s-2.3-.5-3.4-1.5c-.9-1.1-1.4-2.3-1.4-3.7 0-1.5.5-2.7 1.4-3.7 1.1-1.1 2-1.5 3.4-1.5s2.5.4 3.6 1.5c1.1 1 1.6 2.2 1.6 3.7z" fill="#ead3ac"/>
      <path d="M489.78 123.8c0 .8-.5 1.4-1.1 1.9-.3.6-1.1.9-1.5.9-1.1 0-1.7-.3-2.2-.9-.6-.5-.8-1.1-.8-1.9 0-.7.2-1.3.8-1.9.5-.5 1.1-.8 2.2-.8.4 0 1.2.3 1.5.8.8.6 1.1 1.2 1.1 1.9z" fill="#ffe3bb"/>
    </g>
    <g>
      <path d="M113.28 80.79c1.9-1 9.7-5 23.2-14 7.7-5 12.9-6 15.5-5 2.6 1 4.5 5 5.8 13 2 11 4.2 20 6.7 26 2.6 6 7.5 15 14.9 26 5 7 6.8 12 5.4 14-1.7 2-5.5 4-11.5 6-11.5 3-18.2 5-19.9 6-.4 0-9.4 4-27.5 13-11.3 5-18.3 7-20.8 5-3.5-2-6-5-7.6-8-1.8-5-3.9-13-6.3-26-2.2-12-6.4-22-12.6-31-2.4-4-3.7-6-4.1-7-.6-2-.2-4 1.4-6 2.4-4 7.5-6 15.1-7 9.8 0 17.3-2 22.3-5z" fill="#ba906e"/>
      <path d="M88.98 100.79c-8.7-1-13.5-2-14.6-5 0-1 .6-2 1.5-3 2.7-3 6.6-5 11.6-6 2.4 0 6.3-1 11.8-1 5.2-1 9.9-3 14-5 1.9-1 9.7-5 23.2-14 7.7-5 12.9-6 15.5-5 1.7 0 2.9 2 3.7 4 .7 2 1.3 5 2.1 9l-68.8 26z" fill="#e5cdac"/>
      <path d="M84.78 115.79c-1.6-3-3.9-7-6.9-11l5.7 1c11.5 32 16.3 44 14.5 36-1.1-5-1.6-10-1.4-15l.7-6 6.6 26c3.5 16 2.9 22-1.8 18-2.4-2-4.6-5-6.7-9-1.4-4-2.8-11-4.3-19-1.4-8-3.6-15-6.4-21z" fill="#aa8265"/>
      <path d="M101.48 158.79c1.9-2 2.2-9 .7-19l2.1 5c1.5 4 2.7 8 3.5 11 .8 2 1.5 5 2.1 9 .7 3 2.1 5 4.1 5h1.4c-5.2 2-8.6 2-10.3 1-3.5-2-6-5-7.6-8-1.8-5-3.9-13-6.3-26l4.1 12c3.1 8 5.1 12 6.2 10zM78.68 94.79c3.8-1 7.3 2 10.6 9 1.7 3 3.1 6 4 10-3.8-3-7-6-9.7-8-2.3-2-4.2-2-5.7-1-2.1-3-3.3-6-3.5-7 .2-2 1.6-3 4.3-3z" fill="#99745b"/>
      <path d="M88.98 96.79c2.3-4 6.8-6 13.5-7 8.7-1 15.3-3 19.9-6 1.5-1 8.2-5 20-13 6.2-4 10.6-6 13.2-5 2 1 3.1 3 3.1 7 .1 6 1.5 12 4.2 20 1.1 3 3.2 7 6.4 11 1.7 3 4.1 6 7.1 11 3.3 5 5.8 10 7.4 15 1.8 6 2.1 10 1 11-1.5 2-5 4-10.6 6-10.4 3-16.4 5-18.1 6-.3 0-8.7 4-25.1 13-10.4 5-16.8 7-19.2 5-2.1-1-3.8-5-4.9-11-2-11-4.1-20-6.3-27-2-6-5.7-14-11.2-24-2.6-5-2.8-9-.4-12z" fill="#ead3ac"/>
      <path d="M277.6-1670c.1 6 1.5 12 4.1 20 1.1 3 3.3 7 6.5 11 1.7 3 4 6 7.1 11 3.3 5 5.7 10 7.4 15 1.8 6 2.1 10 1 11-1.5 3-5 5-10.5 6-10.5 4-16.5 5-18.2 6-.3 0-8.8 4-25.1 13-10.4 5-16.8 7-19.2 5-2.1-1-3.8-5-5-11-2-11-4.1-20-6.3-27-2-6-5.7-14-11.1-24-2.6-5-2.8-9-.4-12 2.3-4 6.8-6 13.5-7 8.6-1 15.3-3 19.8-6 1.6-1 8.3-5 20.1-13 6.2-4 10.6-6 13.2-5 2 1 3 3 3.1 7z" opacity=".629" fill="url(#A)" transform="translate(-118.62 1742.79)"/>
      <path d="M88.98 100.79c-.6-1-.7-3-.2-4 .9-3 4.2-5 10-6 15.3-2 24.6-5 27.7-8 2.8-3 7.5-7 14.1-11 7.9-5 12.9-7 15-6 2 1 3 3 2.9 5 0 2-.2 3-.7 4 .1-3-.5-5-1.7-7-2.3-3-6.7-1-12.9 6-5.2 5-8.8 8-10.8 10-2.7 1-6.5 3-11.4 4-1.8 1-7.2 2-16.2 4-6.1 1-9.9 2-11.5 3-1.7 2-3 3-3.7 4l-.6 2z" fill="#ffe3bb"/>
      <path d="M99.18 126.79c4 6 6.5 12 7.5 17 .9 4 1.4 8 1.4 12 0 3 .6 7 1.8 10 1.4 4 5.1 5 11 4 3 0 5.8-1 8.5-2-2 1-4.2 2-6.6 2-5 2-8.6 2-11 1-5.5-2-8-9-7.4-20 .3-7-1.5-15-5.4-23l-5.7-10 5.9 9z" fill="#edd3b0"/>
      <path d="M90.58 107.79l12.9 21c10.3 14 19.9 21 28.7 21 4.3 0 8.9-1 13.8-3 6.4-3 12.6-5 18.6-6 4.9-1 9.9-2 14.6-3h2c-.4 0-.9 1-1.5 1-3.9 3-9.7 6-17.2 9-15.4 8-26.7 13-34.2 17-13.6 6-20.4 7-20.4 1 0-7-.3-11-.8-14 0 0-.8-3-2.4-8-1.5-6-4.4-13-8.5-23l-5.6-13z" fill="#cca67f"/>
      <path d="M103.68 86.79c.1-1-.5-2-1.9-2 4.3-1 8.1-2 11.5-4 3.4-1 8.8-5 16.2-9-1.1 3 .2 4 4 3 3.5-1 3 1-1.5 5-4.6 4-8.7 6-12.4 6-3.2 1-7.6 1-13.3 3l-5.9 2c1.7-1 2.9-2 3.3-4z" fill="#d8c0a4"/>
      <path d="M97.28 117.79c18.6-7 32.1-12 40.4-16 8.4-4 13.6-7 24.1-11l3.1 6c-7 4-13.3 8-22.9 12-9.7 4-23.2 10-40.6 16h-11.4l-5.2-8z" opacity=".48" fill="#91a5c1"/>
      <path d="M94.78 86.79l5.8-1 9.1 4c5.5 13 10.4 25 14.6 34 4.1 9 8.3 22 12.5 40l-8.7 4c-1.2-13-3.9-27-8.1-41-2.5-9-6.2-17-11.1-25-2.4-4-4.5-7-6.4-9l-7.7-6z" opacity=".48" fill="#91a5c1"/>
      <path d="M174.08 109.79c-26.2 15-41.5 24-45.7 26-4.1 2-12.2 5-24.3 8l-11.1-3-3-8 10.3 1c9-1 19.8-4 32.2-8 7.9-3 16.6-7 26.2-13 4.9-3 9-6 12.3-8l3.1 5z" opacity=".48" fill="#91a5c1"/>
    </g>
  </g>
</svg>
